<?xml version="1.0" encoding="UTF-8" standalone="no"?>
<!-- Created with Inkscape (http://www.inkscape.org/) -->

<svg
   width="32"
   height="32"
   viewBox="0 0 8.4666665 8.4666666"
   version="1.1"
   id="svg1"
   inkscape:version="1.3 (0e150ed6c4, 2023-07-21)"
   sodipodi:docname="ico.svg"
   xml:space="preserve"
   xmlns:inkscape="http://www.inkscape.org/namespaces/inkscape"
   xmlns:sodipodi="http://sodipodi.sourceforge.net/DTD/sodipodi-0.dtd"
   xmlns:xlink="http://www.w3.org/1999/xlink"
   xmlns="http://www.w3.org/2000/svg"
   xmlns:svg="http://www.w3.org/2000/svg"><sodipodi:namedview
     id="namedview1"
     pagecolor="#ffffff"
     bordercolor="#000000"
     borderopacity="0.25"
     inkscape:showpageshadow="2"
     inkscape:pageopacity="0.0"
     inkscape:pagecheckerboard="0"
     inkscape:deskcolor="#d1d1d1"
     inkscape:document-units="mm"
     inkscape:zoom="11.702245"
     inkscape:cx="-7.0499293"
     inkscape:cy="28.071537"
     inkscape:window-width="1920"
     inkscape:window-height="1017"
     inkscape:window-x="-8"
     inkscape:window-y="-8"
     inkscape:window-maximized="1"
     inkscape:current-layer="layer1"
     showguides="true" /><defs
     id="defs1"><linearGradient
       inkscape:collect="always"
       xlink:href="#linearGradient1"
       id="linearGradient2"
       x1="112.95956"
       y1="98.214317"
       x2="126.5439"
       y2="84.629974"
       gradientUnits="userSpaceOnUse"
       gradientTransform="translate(-1.3808356,42.811438)" /><linearGradient
       id="linearGradient1"
       inkscape:collect="always"><stop
         style="stop-color:#000b1f;stop-opacity:1;"
         offset="0"
         id="stop1" /><stop
         style="stop-color:#313a87;stop-opacity:1;"
         offset="1"
         id="stop2" /></linearGradient><linearGradient
       inkscape:collect="always"
       xlink:href="#linearGradient4"
       id="linearGradient5"
       x1="113.89436"
       y1="103.15081"
       x2="120.04927"
       y2="92.490204"
       gradientUnits="userSpaceOnUse"
       gradientTransform="translate(-1.3808356,42.811438)" /><linearGradient
       id="linearGradient4"
       inkscape:collect="always"><stop
         style="stop-color:#983d09;stop-opacity:1;"
         offset="0"
         id="stop4" /><stop
         style="stop-color:#fdb346;stop-opacity:1;"
         offset="1"
         id="stop5" /></linearGradient></defs><g
     inkscape:label="Camada 1"
     inkscape:groupmode="layer"
     id="layer1"><g
       id="g1"
       transform="matrix(0.33584847,0,0,0.33584847,2.3774276,1.8210144)"><g
         id="g23"
         transform="translate(-112.48746,-127.64353)"><circle
           style="fill:url(#linearGradient2);fill-opacity:1;stroke-width:0.220486"
           id="path43-6"
           cx="118.01348"
           cy="133.24406"
           r="9.9482346" /><g
           id="g6"
           style="fill:#000000;fill-opacity:0.24359"
           transform="translate(-1.9100026,42.811438)"><path
             style="fill:#000000;fill-opacity:0.24359;stroke:none;stroke-width:0.264583"
             d="m 116.94833,90.789631 c -1.76335,-1.377004 -2.09435,-2.47049 -2.09435,-4.252007 0,-1.781517 0.46896,-4.281622 4.36156,-4.281622 3.8926,0 4.58766,2.358867 4.58766,4.219944 v 2.985136 l -3.85073,-2.968411 c 0,-0.671826 0.0634,-1.583549 -0.63728,-1.583549 -0.70064,0 -0.81428,0.524417 -0.81428,1.578129 0,1.053712 1.35616,1.565046 2.88624,2.72992 1.53009,1.164874 2.38213,2.170833 2.38213,5.167988 -0.13913,3.756705 -1.99483,4.218467 -4.26756,4.218467 v -2.665553 c 0.53515,0 0.9383,-0.167789 0.9383,-1.50354 0,-1.33575 -1.72834,-2.267899 -3.49169,-3.644902 z"
             id="path5"
             sodipodi:nodetypes="zzzccczzzccczz" /><path
             style="fill:#000000;fill-opacity:0.24359;stroke:none;stroke-width:0.264583"
             d="m 118.58037,92.964909 -3.69602,-2.663066 V 100.8422 l 3.76538,2.70311 z"
             id="path6"
             sodipodi:nodetypes="ccccc" /></g><path
           style="fill:#ffffff;fill-opacity:1;stroke:none;stroke-width:0.264583"
           d="m 115.5675,133.60107 c -1.76335,-1.37701 -2.09435,-2.47049 -2.09435,-4.25201 0,-1.78152 0.46896,-4.28162 4.36156,-4.28162 3.8926,0 4.58766,2.35887 4.58766,4.21994 v 2.98514 l -3.85073,-2.96841 c 0,-0.67183 0.0634,-1.58355 -0.63728,-1.58355 -0.70064,0 -0.81428,0.52442 -0.81428,1.57813 0,1.05371 1.35616,1.56504 2.88624,2.72992 1.53009,1.16487 2.38213,2.17083 2.38213,5.16799 -0.13913,3.7567 -1.99483,4.21846 -4.26756,4.21846 v -2.66555 c 0.53515,0 0.9383,-0.16779 0.9383,-1.50354 0,-1.33575 -1.72834,-2.2679 -3.49169,-3.6449 z"
           id="path66-8"
           sodipodi:nodetypes="zzzccczzzccczz" /><path
           style="fill:url(#linearGradient5);fill-opacity:1;stroke:none;stroke-width:0.264583"
           d="m 117.19954,135.77635 -3.69602,-2.66307 v 10.54036 l 3.76538,2.70311 z"
           id="path70-1"
           sodipodi:nodetypes="ccccc" /></g></g></g></svg>
