<?xml version="1.0" encoding="UTF-8" standalone="no"?>
<!-- Created with Inkscape (http://www.inkscape.org/) -->

<svg
   width="134"
   height="50"
   viewBox="0 0 35.454166 13.229167"
   version="1.1"
   id="svg1"
   inkscape:version="1.3 (0e150ed6c4, 2023-07-21)"
   sodipodi:docname="logo.svg"
   xml:space="preserve"
   xmlns:inkscape="http://www.inkscape.org/namespaces/inkscape"
   xmlns:sodipodi="http://sodipodi.sourceforge.net/DTD/sodipodi-0.dtd"
   xmlns="http://www.w3.org/2000/svg"
   xmlns:svg="http://www.w3.org/2000/svg"><sodipodi:namedview
     id="namedview1"
     pagecolor="#ffffff"
     bordercolor="#000000"
     borderopacity="0.25"
     inkscape:showpageshadow="2"
     inkscape:pageopacity="0.0"
     inkscape:pagecheckerboard="0"
     inkscape:deskcolor="#d1d1d1"
     inkscape:document-units="mm"
     inkscape:zoom="4.1373684"
     inkscape:cx="41.693169"
     inkscape:cy="69.488615"
     inkscape:window-width="1920"
     inkscape:window-height="1017"
     inkscape:window-x="-8"
     inkscape:window-y="-8"
     inkscape:window-maximized="1"
     inkscape:current-layer="layer1"
     showguides="true" /><defs
     id="defs1" /><g
     inkscape:label="Camada 1"
     inkscape:groupmode="layer"
     id="layer1"><g
       id="g1"
       transform="matrix(0.57366947,0,0,0.57366947,-62.692126,-15.35532)"
       style="fill:#f2f2f2"><path
         id="circle24"
         style="fill:#f2f2f2;fill-opacity:1;stroke-width:0.220486"
         d="m 119.39426,26.766842 a 9.9482346,9.9482346 0 0 0 -9.94823,9.94823 9.9482346,9.9482346 0 0 0 5.43843,8.843387 V 36.58433 l 3.6959,2.662887 0.0481,7.361308 a 9.9482346,9.9482346 0 0 0 0.76584,0.05478 9.9482346,9.9482346 0 0 0 9.94823,-9.94823 9.9482346,9.9482346 0 0 0 -9.94823,-9.94823 z m -0.76584,19.841683 a 9.9482346,9.9482346 0 0 1 -3.74396,-1.050066 v 1.565796 l 3.76515,2.703195 z m 0.58704,-18.070215 c 3.8926,0 4.58784,2.358824 4.58784,4.219897 v 2.985348 l -3.85093,-2.968811 c 0,-0.671826 0.0635,-1.583366 -0.63717,-1.583366 -0.70064,0 -0.81442,0.524488 -0.81442,1.578198 0,1.05371 1.35605,1.565194 2.88613,2.730066 1.53007,1.164872 2.38228,2.170494 2.38228,5.167643 -0.13913,3.756697 -1.99471,4.218864 -4.26744,4.218864 v -2.665987 c 0.53515,0 0.93844,-0.16752 0.93844,-1.503267 0,-1.335748 -1.72842,-2.26774 -3.49177,-3.644739 -1.76335,-1.377002 -2.09445,-2.470941 -2.09445,-4.252454 0,-1.781513 0.46891,-4.281392 4.36149,-4.281392 z" /><path
         d="m 155.92303,38.531257 -1.72082,8.552452 h 1.46399 l 0.92191,-4.608507 1.72082,4.719087 h 0.5426 l 1.72083,-4.719087 0.88677,4.608507 h 1.47019 l -1.74408,-8.552452 h -0.79943 l -1.80816,5.757788 -1.8495,-5.757788 z"
         id="path24"
         style="fill:#f2f2f2;fill-opacity:1" /><path
         d="m 134.02359,38.472862 c -0.17112,0 -0.76236,0.02182 -1.77353,0.0646 v 8.540567 h 1.5167 v -3.144518 c 0.28779,0.02723 0.51721,0.04082 0.68833,0.04082 0.14438,0 0.28425,-0.0037 0.41961,-0.01137 0.13536,-0.0077 0.26641,-0.01931 0.39274,-0.03462 0.12634,-0.01531 0.24804,-0.03439 0.36536,-0.05736 0.11731,-0.02297 0.23019,-0.04999 0.33848,-0.08061 0.10828,-0.03063 0.21183,-0.06507 0.31109,-0.103353 0.0993,-0.03828 0.19398,-0.08015 0.28422,-0.12609 0.0902,-0.04594 0.17613,-0.09575 0.25735,-0.149345 0.0812,-0.0536 0.15777,-0.111346 0.22996,-0.172599 0.0722,-0.06125 0.13992,-0.12591 0.20309,-0.194821 0.0632,-0.06891 0.12207,-0.142024 0.17621,-0.218591 0.0541,-0.07657 0.10371,-0.156588 0.14883,-0.240812 0.0451,-0.08422 0.0859,-0.172703 0.12196,-0.264583 0.0361,-0.09188 0.0675,-0.187267 0.0946,-0.286805 0.0271,-0.09954 0.0496,-0.202864 0.0677,-0.310058 0.018,-0.107194 0.0313,-0.218463 0.0403,-0.333313 0.009,-0.114851 0.0139,-0.233543 0.0139,-0.356051 0,-0.109868 -0.005,-0.215751 -0.015,-0.318327 -0.01,-0.102575 -0.0244,-0.201856 -0.0439,-0.297139 -0.0196,-0.09528 -0.044,-0.186927 -0.0734,-0.274919 -0.0293,-0.08799 -0.0637,-0.171998 -0.10284,-0.252698 -0.0391,-0.0807 -0.0829,-0.158103 -0.13177,-0.23151 -0.0489,-0.07341 -0.10305,-0.143174 -0.16175,-0.209289 -0.0587,-0.06612 -0.1222,-0.128246 -0.19068,-0.187069 -0.0685,-0.05882 -0.14188,-0.114351 -0.22015,-0.165882 -0.0778,-0.05202 -0.16096,-0.100729 -0.25011,-0.146244 -0.0891,-0.04552 -0.18423,-0.08759 -0.28474,-0.126607 -0.10051,-0.03901 -0.20645,-0.07498 -0.31832,-0.107487 -0.11188,-0.03251 -0.22972,-0.06184 -0.35295,-0.08785 -0.12324,-0.02601 -0.25194,-0.04871 -0.38654,-0.06821 -0.1346,-0.01951 -0.2752,-0.03557 -0.42117,-0.04858 -0.29192,-0.02601 -0.60623,-0.03927 -0.94361,-0.03927 z m 0.20412,1.347722 c 0.17842,0 0.34567,0.0068 0.50178,0.02067 0.15611,0.01385 0.30079,0.03482 0.4346,0.06253 0.13381,0.02771 0.25643,0.0623 0.36794,0.103869 0.11151,0.04156 0.21206,0.09031 0.30127,0.145728 0.0892,0.05542 0.16719,0.117793 0.2341,0.187068 0.0669,0.06928 0.12282,0.14528 0.16743,0.22841 0.0446,0.08313 0.078,0.173283 0.10025,0.270268 0.0223,0.09699 0.0336,0.200769 0.0336,0.311609 0,0.130285 -0.01,0.251504 -0.03,0.363802 -0.0199,0.112298 -0.0501,0.215747 -0.0899,0.310059 -0.0399,0.09431 -0.0896,0.179474 -0.14935,0.255798 -0.0598,0.07632 -0.12956,0.143718 -0.20929,0.202055 -0.0797,0.05736 -0.17082,0.107355 -0.27388,0.150378 -0.10306,0.04302 -0.21777,0.07932 -0.34417,0.108004 -0.12639,0.02868 -0.26471,0.04974 -0.41444,0.06408 -0.14973,0.01434 -0.31114,0.0217 -0.48421,0.0217 -0.14778,0 -0.35,-0.0136 -0.60668,-0.04083 v -2.73575 c 0.14779,-0.01945 0.3015,-0.02945 0.46095,-0.02945 z"
         id="path25"
         style="fill:#f2f2f2;fill-opacity:1" /><path
         d="m 141.63036,38.443923 c -0.35002,0 -0.81064,0.0154 -1.38234,0.04651 -0.5717,0.02723 -0.90042,0.04083 -0.98599,0.04083 v 8.546766 h 1.5751 v -3.570326 c 0.41225,0.02336 0.73327,0.03696 0.96273,0.04082 l 2.281,3.529496 1.74976,-5.1e-4 -2.52594,-3.849896 c 0.11376,-0.04278 0.22256,-0.09332 0.32659,-0.151412 0.10404,-0.05809 0.20335,-0.123997 0.29766,-0.197404 0.0943,-0.07341 0.18361,-0.154159 0.2682,-0.242879 0.0846,-0.08872 0.1644,-0.185354 0.23926,-0.289388 0.0749,-0.104035 0.14074,-0.21077 0.19689,-0.320394 0.0562,-0.109625 0.10261,-0.222232 0.14004,-0.337447 0.0374,-0.115216 0.0655,-0.233178 0.0842,-0.353984 0.0187,-0.120806 0.0284,-0.244123 0.0284,-0.37052 0,-0.105006 -0.004,-0.206964 -0.0129,-0.305408 -0.008,-0.09844 -0.0213,-0.193373 -0.0382,-0.285254 -0.017,-0.09188 -0.0381,-0.180816 -0.0636,-0.266133 -0.0254,-0.08532 -0.055,-0.167225 -0.0889,-0.24598 -0.0339,-0.07876 -0.0723,-0.154151 -0.11472,-0.226343 -0.0424,-0.07219 -0.0887,-0.141077 -0.13952,-0.206706 -0.0509,-0.06563 -0.10603,-0.128002 -0.16537,-0.187068 -0.0593,-0.05907 -0.12287,-0.114929 -0.19069,-0.167432 -0.0678,-0.0525 -0.14023,-0.101854 -0.21652,-0.147794 -0.0763,-0.04594 -0.15656,-0.08826 -0.24133,-0.127641 -0.0848,-0.03938 -0.17392,-0.07571 -0.26717,-0.108521 -0.0932,-0.03281 -0.19076,-0.06212 -0.29248,-0.08837 -0.10173,-0.02625 -0.20761,-0.04956 -0.31781,-0.06925 -0.11021,-0.01969 -0.22446,-0.03597 -0.34314,-0.04909 -0.23735,-0.02625 -0.49199,-0.03927 -0.76326,-0.03927 z m -0.27957,1.370976 c 0.16918,0 0.32679,0.0051 0.47336,0.0155 0.14657,0.01045 0.28169,0.02612 0.40566,0.04703 0.12397,0.0209 0.2366,0.04719 0.33796,0.07855 0.10136,0.03136 0.19152,0.06775 0.27027,0.109554 0.0788,0.04181 0.14764,0.09174 0.20671,0.149345 0.0591,0.05761 0.10841,0.122963 0.14779,0.19637 0.0394,0.07341 0.0687,0.154706 0.0884,0.243913 0.0197,0.08921 0.03,0.186449 0.03,0.291455 0,0.129313 -0.009,0.247884 -0.0279,0.356051 -0.0185,0.108166 -0.0463,0.205986 -0.0832,0.293005 -0.037,0.08702 -0.0831,0.163571 -0.1385,0.229443 -0.0554,0.06587 -0.11989,0.121157 -0.19378,0.165882 -0.0729,0.04472 -0.15684,0.08376 -0.25115,0.117305 -0.0943,0.03354 -0.19901,0.06135 -0.31471,0.08372 -0.1157,0.02236 -0.24221,0.03895 -0.37931,0.05013 -0.13709,0.01118 -0.2849,0.01705 -0.44338,0.01705 -0.14779,0 -0.3618,-0.01181 -0.64182,-0.03514 v -2.374015 c 0.1789,-0.02333 0.35032,-0.03514 0.51366,-0.03514 z"
         id="path26"
         style="fill:#f2f2f2;fill-opacity:1" /><path
         d="m 167.12958,38.379845 c -0.13952,0 -0.27571,0.0065 -0.40824,0.01964 -0.13254,0.01319 -0.26151,0.03305 -0.38706,0.05943 -0.12554,0.02637 -0.24731,0.05914 -0.36587,0.0987 -0.11856,0.03956 -0.23363,0.08575 -0.3452,0.138492 -0.11157,0.05275 -0.21994,0.112351 -0.32452,0.178284 -0.10459,0.06593 -0.20575,0.138438 -0.30334,0.217558 -0.0976,0.07912 -0.19155,0.164526 -0.28216,0.256832 -0.0906,0.09231 -0.17786,0.19113 -0.26148,0.296622 -0.0831,0.105007 -0.16084,0.213111 -0.23358,0.324012 -0.0727,0.110901 -0.14022,0.224786 -0.20257,0.341581 -0.0623,0.116795 -0.11961,0.236461 -0.17157,0.359151 -0.052,0.12269 -0.0985,0.248654 -0.14004,0.377238 -0.0416,0.128584 -0.0779,0.259813 -0.10904,0.394291 -0.0312,0.134479 -0.0573,0.272005 -0.078,0.412378 -0.0208,0.140373 -0.0366,0.283681 -0.047,0.429948 -0.0104,0.146268 -0.0155,0.295356 -0.0155,0.447518 0,0.174038 0.005,0.343694 0.0145,0.508496 0.01,0.164802 0.0238,0.325026 0.0429,0.480591 0.0191,0.155565 0.0427,0.306357 0.0713,0.452685 0.0286,0.146329 0.0621,0.288206 0.10025,0.425297 0.0382,0.137092 0.081,0.269537 0.12867,0.397392 0.0477,0.127855 0.10037,0.250868 0.15762,0.369487 0.0572,0.118618 0.11925,0.232716 0.18603,0.342098 0.0668,0.109381 0.13814,0.214048 0.21446,0.314192 0.0768,0.100145 0.15826,0.19401 0.2434,0.281641 0.0851,0.0876 0.17422,0.16932 0.26768,0.24443 0.0935,0.0751 0.19122,0.14359 0.29301,0.20618 0.10178,0.0626 0.20769,0.11891 0.31781,0.16899 0.11011,0.0501 0.22417,0.0942 0.34261,0.13177 0.11844,0.0376 0.24118,0.0685 0.36794,0.0935 0.12676,0.025 0.25765,0.0438 0.39274,0.0563 0.13508,0.0125 0.27413,0.0191 0.41754,0.0191 0.15605,0 0.30764,-0.007 0.45476,-0.0191 0.14711,-0.0126 0.28969,-0.0316 0.42788,-0.0568 0.13818,-0.0253 0.27227,-0.0567 0.40152,-0.0946 0.12926,-0.0379 0.25382,-0.0823 0.37414,-0.13281 0.12032,-0.0506 0.2364,-0.10733 0.34778,-0.17053 0.11139,-0.0632 0.21794,-0.13294 0.3204,-0.20877 0.10245,-0.0758 0.20051,-0.15802 0.29403,-0.2465 0.0935,-0.08848 0.18258,-0.183102 0.26717,-0.284219 0.0851,-0.101118 0.16482,-0.206788 0.23926,-0.316777 0.0744,-0.109989 0.14394,-0.22427 0.20774,-0.343131 0.0638,-0.118862 0.12201,-0.24227 0.17519,-0.370004 0.0532,-0.127733 0.10112,-0.259752 0.14366,-0.396358 0.0425,-0.136605 0.0797,-0.277752 0.11162,-0.42323 0.0319,-0.145477 0.0583,-0.295752 0.0796,-0.450102 0.0213,-0.154349 0.0374,-0.312718 0.0481,-0.47594 0.0106,-0.163221 0.016,-0.331234 0.016,-0.503328 0,-0.172094 -0.005,-0.339286 -0.0155,-0.501778 -0.0102,-0.162493 -0.0252,-0.319948 -0.0455,-0.47284 -0.0203,-0.152891 -0.0455,-0.301127 -0.076,-0.444417 -0.0305,-0.14329 -0.0659,-0.28179 -0.10646,-0.415478 -0.0406,-0.133689 -0.0867,-0.262453 -0.13746,-0.38654 -0.0507,-0.124087 -0.10654,-0.243632 -0.16743,-0.358118 -0.0609,-0.114486 -0.12688,-0.224294 -0.19792,-0.329179 -0.071,-0.104884 -0.14671,-0.204956 -0.22789,-0.30024 -0.0812,-0.09528 -0.16711,-0.18431 -0.25735,-0.267684 -0.0902,-0.08337 -0.18493,-0.161081 -0.28422,-0.232544 -0.0993,-0.07146 -0.20326,-0.136818 -0.31161,-0.19637 -0.10835,-0.05955 -0.22108,-0.113072 -0.33848,-0.160714 -0.1174,-0.04764 -0.23941,-0.08932 -0.36587,-0.125057 -0.12646,-0.03573 -0.25723,-0.06558 -0.39274,-0.0894 -0.13551,-0.02382 -0.27556,-0.04183 -0.42013,-0.05374 -0.14457,-0.01191 -0.2939,-0.01757 -0.44752,-0.01757 z m 0,1.347721 c 0.0924,0 0.18213,0.0035 0.26872,0.01137 0.0866,0.0078 0.17033,0.01949 0.25115,0.03514 0.0808,0.01565 0.15853,0.03544 0.23357,0.05891 0.0751,0.02347 0.14725,0.05087 0.21653,0.08216 0.0693,0.0313 0.13545,0.0663 0.19895,0.10542 0.0635,0.03912 0.12417,0.08225 0.1819,0.129191 0.0577,0.04694 0.1129,0.09768 0.16485,0.152446 0.052,0.05477 0.10058,0.113626 0.14676,0.176217 0.0462,0.06259 0.0898,0.129056 0.13023,0.199471 0.0404,0.07041 0.078,0.145004 0.11265,0.223242 0.0346,0.07824 0.0662,0.159918 0.0951,0.24598 0.0289,0.08606 0.0549,0.176381 0.078,0.270267 0.0462,0.187772 0.0808,0.391232 0.10387,0.610299 0.0231,0.219067 0.0346,0.453471 0.0346,0.703833 0,0.25571 -0.0127,0.496594 -0.0377,0.72192 -0.0125,0.112663 -0.0283,0.221528 -0.047,0.326595 -0.0188,0.105067 -0.0406,0.205869 -0.0656,0.30334 -0.025,0.09747 -0.0529,0.191245 -0.0842,0.28112 -0.0313,0.08987 -0.0658,0.176103 -0.10335,0.258382 -0.0376,0.08228 -0.0782,0.160962 -0.12196,0.235645 -0.0438,0.07468 -0.091,0.145303 -0.14108,0.21239 -0.0496,0.06709 -0.10185,0.129918 -0.15709,0.188619 -0.0552,0.0587 -0.11326,0.113499 -0.17415,0.163814 -0.0609,0.05032 -0.12466,0.09605 -0.1912,0.137976 -0.0666,0.04193 -0.13607,0.08015 -0.20826,0.113689 -0.0722,0.03354 -0.14695,0.06269 -0.22479,0.08785 -0.0778,0.02516 -0.15887,0.04627 -0.24237,0.06305 -0.0835,0.01677 -0.16975,0.02934 -0.25889,0.03772 -0.0891,0.0084 -0.18116,0.0124 -0.27596,0.0124 -0.0807,0 -0.15871,-0.0044 -0.23461,-0.01292 -0.0759,-0.0086 -0.14956,-0.0211 -0.22066,-0.03824 -0.0711,-0.01714 -0.13989,-0.03889 -0.20619,-0.0646 -0.0663,-0.0257 -0.13022,-0.05564 -0.19171,-0.08992 -0.0615,-0.03427 -0.12056,-0.07291 -0.17725,-0.115756 -0.0567,-0.04284 -0.11089,-0.08967 -0.16279,-0.141076 -0.0519,-0.05141 -0.10121,-0.107454 -0.14831,-0.167432 -0.0471,-0.05998 -0.0921,-0.124207 -0.13436,-0.192753 -0.0423,-0.06855 -0.0818,-0.140413 -0.11885,-0.216007 -0.037,-0.0756 -0.0711,-0.154551 -0.10284,-0.237195 -0.0634,-0.165288 -0.11635,-0.344985 -0.15864,-0.538469 -0.0423,-0.193484 -0.0745,-0.401021 -0.0956,-0.622701 -0.0211,-0.22168 -0.0315,-0.457574 -0.0315,-0.70745 0,-0.229458 0.0115,-0.446793 0.0341,-0.652673 0.0226,-0.205881 0.0566,-0.400091 0.1018,-0.582394 0.0452,-0.182302 0.10168,-0.352872 0.1695,-0.511596 0.0339,-0.07936 0.0705,-0.155976 0.11007,-0.229444 0.0396,-0.07347 0.0819,-0.143783 0.12712,-0.211356 0.0452,-0.06806 0.093,-0.131651 0.14315,-0.191203 0.0501,-0.05955 0.10256,-0.114837 0.15761,-0.165882 0.0551,-0.05104 0.11262,-0.09802 0.1726,-0.140559 0.06,-0.04254 0.12217,-0.08069 0.18707,-0.114722 0.0649,-0.03403 0.13223,-0.06388 0.20205,-0.0894 0.0698,-0.02552 0.1423,-0.04706 0.21704,-0.06408 0.0747,-0.01702 0.15185,-0.02973 0.23152,-0.03824 0.0797,-0.0085 0.1619,-0.0124 0.24649,-0.0124 z"
         id="path27"
         style="fill:#f2f2f2;fill-opacity:1" /><path
         d="m 149.82676,38.379845 c -0.13952,0 -0.27519,0.0065 -0.40773,0.01964 -0.13253,0.01319 -0.26202,0.03305 -0.38757,0.05943 -0.12554,0.02637 -0.24731,0.05914 -0.36587,0.0987 -0.11856,0.03956 -0.23363,0.08575 -0.3452,0.138492 -0.11157,0.05275 -0.21994,0.112351 -0.32452,0.178284 -0.10459,0.06593 -0.20523,0.138438 -0.30283,0.217558 -0.0976,0.07912 -0.19206,0.164526 -0.28267,0.256832 -0.0906,0.09231 -0.17735,0.19113 -0.26096,0.296622 -0.0831,0.105007 -0.16136,0.213111 -0.2341,0.324012 -0.0727,0.110901 -0.14022,0.224786 -0.20257,0.341581 -0.0624,0.116795 -0.11961,0.236461 -0.17157,0.359151 -0.052,0.12269 -0.0985,0.248654 -0.14004,0.377238 -0.0416,0.128584 -0.0779,0.259813 -0.10904,0.394291 -0.0312,0.134479 -0.0572,0.272005 -0.078,0.412378 -0.0208,0.140373 -0.0366,0.283681 -0.047,0.429948 -0.0104,0.146268 -0.0155,0.295356 -0.0155,0.447518 0,0.174038 0.005,0.343694 0.0145,0.508496 0.01,0.164802 0.0238,0.325026 0.0429,0.480591 0.0191,0.155565 0.0432,0.306357 0.0718,0.452685 0.0286,0.146329 0.0616,0.288206 0.0997,0.425297 0.0382,0.137092 0.0815,0.269537 0.12919,0.397392 0.0477,0.127855 0.0999,0.250868 0.1571,0.369487 0.0572,0.118618 0.11925,0.232716 0.18603,0.342098 0.0668,0.109381 0.13865,0.214048 0.21498,0.314192 0.0768,0.100145 0.15774,0.19401 0.24288,0.281641 0.0851,0.0876 0.17422,0.16932 0.26768,0.24443 0.0935,0.0751 0.19122,0.14359 0.29301,0.20618 0.10178,0.0626 0.20769,0.11891 0.31781,0.16899 0.11011,0.0501 0.22417,0.0942 0.34261,0.13177 0.11844,0.0376 0.24118,0.0685 0.36794,0.0935 0.12676,0.025 0.25765,0.0438 0.39274,0.0563 0.13508,0.0125 0.27413,0.0191 0.41754,0.0191 0.15605,0 0.30764,-0.007 0.45476,-0.0191 0.14711,-0.0126 0.29021,-0.0316 0.42839,-0.0568 0.13819,-0.0253 0.27176,-0.0567 0.40101,-0.0946 0.12925,-0.0379 0.25382,-0.0823 0.37414,-0.13281 0.12032,-0.0506 0.2364,-0.10733 0.34778,-0.17053 0.11139,-0.0632 0.21846,-0.13294 0.32091,-0.20877 0.10246,-0.0758 0.2,-0.15802 0.29353,-0.2465 0.0935,-0.08848 0.18257,-0.183102 0.26716,-0.284219 0.0851,-0.101118 0.16534,-0.206788 0.23978,-0.316777 0.0744,-0.109989 0.14342,-0.22427 0.20722,-0.343131 0.0638,-0.118862 0.12201,-0.24227 0.17519,-0.370004 0.0532,-0.127733 0.10112,-0.259752 0.14366,-0.396358 0.0425,-0.136605 0.0797,-0.277752 0.11162,-0.42323 0.0319,-0.145477 0.0588,-0.295752 0.0801,-0.450102 0.0213,-0.154349 0.0369,-0.312718 0.0475,-0.47594 0.0106,-0.163221 0.016,-0.331234 0.016,-0.503328 0,-0.172094 -0.005,-0.339286 -0.015,-0.501778 -0.0102,-0.162493 -0.0257,-0.319948 -0.046,-0.47284 -0.0203,-0.152891 -0.0455,-0.301127 -0.076,-0.444417 -0.0305,-0.14329 -0.0659,-0.28179 -0.10646,-0.415478 -0.0406,-0.133689 -0.0862,-0.262453 -0.13694,-0.38654 -0.0507,-0.124087 -0.10654,-0.243632 -0.16743,-0.358118 -0.0609,-0.114486 -0.12688,-0.224294 -0.19792,-0.329179 -0.071,-0.104884 -0.14723,-0.204956 -0.22841,-0.30024 -0.0812,-0.09528 -0.16711,-0.18431 -0.25735,-0.267684 -0.0902,-0.08337 -0.18493,-0.161081 -0.28422,-0.232544 -0.0993,-0.07146 -0.20326,-0.136818 -0.31161,-0.19637 -0.10835,-0.05955 -0.22108,-0.113072 -0.33848,-0.160714 -0.1174,-0.04764 -0.23941,-0.08932 -0.36587,-0.125057 -0.12646,-0.03573 -0.25723,-0.06558 -0.39274,-0.0894 -0.13551,-0.02382 -0.27556,-0.04183 -0.42013,-0.05374 -0.14457,-0.01191 -0.2939,-0.01757 -0.44752,-0.01757 z m 0,1.347721 c 0.0924,0 0.18213,0.0035 0.26872,0.01137 0.0866,0.0078 0.17033,0.01949 0.25115,0.03514 0.0808,0.01565 0.15853,0.03544 0.23357,0.05891 0.0751,0.02347 0.14725,0.05087 0.21653,0.08216 0.0693,0.0313 0.13545,0.0663 0.19895,0.10542 0.0635,0.03912 0.12417,0.08225 0.1819,0.129191 0.0577,0.04694 0.1129,0.09768 0.16485,0.152446 0.052,0.05477 0.1011,0.113626 0.14728,0.176217 0.0462,0.06259 0.0893,0.129056 0.12971,0.199471 0.0404,0.07041 0.078,0.145004 0.11265,0.223242 0.0346,0.07824 0.0662,0.159918 0.0951,0.24598 0.0289,0.08606 0.0549,0.176381 0.078,0.270267 0.0462,0.187772 0.0808,0.391232 0.10387,0.610299 0.0231,0.219067 0.0346,0.453471 0.0346,0.703833 0,0.25571 -0.0127,0.496594 -0.0377,0.72192 -0.0125,0.112663 -0.0277,0.221528 -0.0465,0.326595 -0.0188,0.105067 -0.0411,0.205869 -0.0661,0.30334 -0.025,0.09747 -0.0529,0.191245 -0.0842,0.28112 -0.0313,0.08987 -0.0658,0.176103 -0.10335,0.258382 -0.0376,0.08228 -0.0781,0.160962 -0.12196,0.235645 -0.0438,0.07468 -0.091,0.145303 -0.14108,0.21239 -0.0496,0.06709 -0.10186,0.129918 -0.15709,0.188619 -0.0552,0.0587 -0.11326,0.113499 -0.17415,0.163814 -0.0609,0.05032 -0.12466,0.09605 -0.1912,0.137976 -0.0665,0.04193 -0.13607,0.08015 -0.20826,0.113689 -0.0722,0.03354 -0.14695,0.06269 -0.22479,0.08785 -0.0779,0.02516 -0.15835,0.04627 -0.24185,0.06305 -0.0835,0.01677 -0.17027,0.02934 -0.25941,0.03772 -0.0891,0.0084 -0.18116,0.0124 -0.27596,0.0124 -0.0807,0 -0.15871,-0.0044 -0.23461,-0.01292 -0.0759,-0.0086 -0.14956,-0.0211 -0.22066,-0.03824 -0.0711,-0.01714 -0.13989,-0.03889 -0.20619,-0.0646 -0.0663,-0.0257 -0.13022,-0.05564 -0.19171,-0.08992 -0.0615,-0.03427 -0.12056,-0.07291 -0.17725,-0.115756 -0.0567,-0.04284 -0.11089,-0.08967 -0.16279,-0.141076 -0.0519,-0.05141 -0.10121,-0.107454 -0.14831,-0.167432 -0.0471,-0.05998 -0.0921,-0.124207 -0.13436,-0.192753 -0.0423,-0.06855 -0.0818,-0.140413 -0.11885,-0.216007 -0.037,-0.0756 -0.0711,-0.154551 -0.10284,-0.237195 -0.0634,-0.165288 -0.11635,-0.344985 -0.15864,-0.538469 -0.0423,-0.193484 -0.0739,-0.401021 -0.0951,-0.622701 -0.0212,-0.22168 -0.032,-0.457574 -0.032,-0.70745 0,-0.229458 0.0115,-0.446793 0.0341,-0.652673 0.0226,-0.205881 0.0566,-0.400091 0.1018,-0.582394 0.0452,-0.182302 0.10168,-0.352872 0.1695,-0.511596 0.0339,-0.07936 0.0705,-0.155976 0.11007,-0.229444 0.0396,-0.07347 0.0819,-0.143783 0.12712,-0.211356 0.0452,-0.06806 0.093,-0.131651 0.14315,-0.191203 0.0501,-0.05955 0.10256,-0.114837 0.15761,-0.165882 0.0551,-0.05104 0.11262,-0.09802 0.1726,-0.140559 0.06,-0.04254 0.12269,-0.08069 0.18759,-0.114722 0.0649,-0.03403 0.13223,-0.06388 0.20205,-0.0894 0.0698,-0.02552 0.14178,-0.04706 0.21652,-0.06408 0.0747,-0.01702 0.15185,-0.02973 0.23152,-0.03824 0.0797,-0.0085 0.1619,-0.0124 0.24649,-0.0124 z"
         id="path28"
         style="fill:#f2f2f2;fill-opacity:1" /><path
         d="m 148.18015,27.953701 -1.86931,9.287044 h 1.5904 l 1.00115,-5.004644 1.86874,5.125299 h 0.58924 l 1.86875,-5.125299 0.963,5.004644 h 1.59657 l -1.89457,-9.287044 h -0.86758 l -1.96415,6.252719 -2.00792,-6.252719 z"
         id="path29"
         style="fill:#f2f2f2;fill-opacity:1;stroke-width:1.08596" /><path
         d="m 158.72817,27.890287 c -0.18583,0 -0.82789,0.02313 -1.92598,0.06959 v 9.274698 h 1.64707 v -3.414809 c 0.31254,0.02957 0.56167,0.04433 0.7475,0.04433 0.15679,0 0.30868,-0.004 0.45568,-0.01235 0.14699,-0.0084 0.28931,-0.02097 0.4265,-0.0376 0.1372,-0.01663 0.26936,-0.03735 0.39676,-0.06229 0.1274,-0.02494 0.24998,-0.05372 0.36758,-0.08698 0.11759,-0.03326 0.23004,-0.07066 0.33783,-0.112237 0.10784,-0.04157 0.21065,-0.0876 0.30865,-0.13749 0.0979,-0.04989 0.19127,-0.103981 0.27947,-0.162182 0.0882,-0.05821 0.17133,-0.120356 0.24973,-0.186875 0.0784,-0.06652 0.15195,-0.137294 0.22055,-0.212128 0.0686,-0.07483 0.13256,-0.153671 0.19135,-0.23682 0.0588,-0.08315 0.11263,-0.170609 0.16163,-0.262073 0.049,-0.09146 0.0933,-0.186987 0.13244,-0.286766 0.0392,-0.09978 0.0733,-0.203925 0.10273,-0.312018 0.0294,-0.108097 0.0539,-0.220302 0.0735,-0.336711 0.0197,-0.116408 0.034,-0.23668 0.0438,-0.361403 0.01,-0.124723 0.0151,-0.253618 0.0151,-0.386656 0,-0.119312 -0.005,-0.234858 -0.0163,-0.346251 -0.0109,-0.111392 -0.0265,-0.218646 -0.0477,-0.32212 -0.0213,-0.103471 -0.0478,-0.202995 -0.0797,-0.29855 -0.0318,-0.09555 -0.0692,-0.187344 -0.11168,-0.274981 -0.0425,-0.08764 -0.0899,-0.171132 -0.1431,-0.250849 -0.0531,-0.07972 -0.11191,-0.155482 -0.17565,-0.22728 -0.0637,-0.07179 -0.13271,-0.13983 -0.20707,-0.20371 -0.0744,-0.06388 -0.15408,-0.123619 -0.23908,-0.179579 -0.0845,-0.05649 -0.17479,-0.109388 -0.27161,-0.158815 -0.0969,-0.04943 -0.20006,-0.09568 -0.30921,-0.138051 -0.10915,-0.04236 -0.2242,-0.08086 -0.34568,-0.116165 -0.1215,-0.03531 -0.24947,-0.06716 -0.38329,-0.0954 -0.13384,-0.02825 -0.2736,-0.0529 -0.41977,-0.07407 -0.14617,-0.02119 -0.29886,-0.03919 -0.45737,-0.05331 -0.31702,-0.02825 -0.65834,-0.04209 -1.02472,-0.04209 z m 0.22166,1.463569 c 0.19376,0 0.37539,0.0074 0.54492,0.02245 0.16953,0.01505 0.32664,0.03725 0.47195,0.06734 0.14532,0.03009 0.27848,0.06765 0.39957,0.112798 0.1211,0.04513 0.23029,0.09807 0.32717,0.158255 0.0969,0.06018 0.18156,0.127918 0.25421,0.203148 0.0727,0.07523 0.13339,0.157768 0.18183,0.248043 0.0484,0.09028 0.0847,0.188179 0.10887,0.2935 0.0242,0.105327 0.0365,0.218027 0.0365,0.338395 0,0.141484 -0.0109,0.273683 -0.0326,0.395635 -0.0216,0.121951 -0.0544,0.233731 -0.0976,0.336149 -0.0433,0.102417 -0.0973,0.195463 -0.16219,0.278348 -0.0649,0.08288 -0.14069,0.155511 -0.22728,0.218862 -0.0866,0.06229 -0.1855,0.117144 -0.29742,0.163866 -0.11192,0.04672 -0.23705,0.08558 -0.37431,0.116726 -0.13726,0.03115 -0.28691,0.05457 -0.44951,0.07014 -0.1626,0.01557 -0.33788,0.02301 -0.52583,0.02301 -0.16049,0 -0.38007,-0.01477 -0.65883,-0.04434 V 29.38527 c 0.1605,-0.02112 0.32742,-0.03143 0.50057,-0.03143 z"
         id="path30"
         style="fill:#f2f2f2;fill-opacity:1;stroke-width:1.08596" /><path
         d="m 166.23514,27.826873 -3.69989,9.4077 h 1.83114 l 0.64593,-1.881653 h 3.18023 l 0.67791,1.881653 h 1.81824 l -3.73132,-9.4077 z m 0.36084,2.837911 1.11507,3.427715 h -2.22959 z"
         id="path31"
         style="fill:#f2f2f2;fill-opacity:1;stroke-width:1.08596" /><path
         d="m 141.69903,27.826873 -3.6999,9.4077 h 1.83115 l 0.64592,-1.881653 h 3.18023 l 0.67791,1.881653 h 1.81824 l -3.73132,-9.4077 z m 0.36139,2.837911 1.11452,3.427715 h -2.22959 z"
         id="path32"
         style="fill:#f2f2f2;fill-opacity:1;stroke-width:1.08596" /><path
         d="m 134.67356,27.794886 c -0.2059,0 -0.40296,0.01477 -0.59037,0.04433 -0.0937,0.01478 -0.18477,0.03338 -0.27386,0.05556 -0.0891,0.02218 -0.17592,0.04844 -0.26039,0.078 -0.0845,0.02956 -0.16651,0.06238 -0.24636,0.09933 -0.0798,0.03696 -0.15766,0.07799 -0.2329,0.122339 -0.0753,0.04435 -0.14824,0.09193 -0.21885,0.143664 -0.0706,0.05174 -0.13885,0.107542 -0.20483,0.166672 -0.0655,0.05913 -0.1268,0.11999 -0.18407,0.182946 -0.0573,0.06295 -0.11028,0.127947 -0.15938,0.19473 -0.0491,0.06679 -0.0944,0.135344 -0.13524,0.205956 -0.0409,0.07061 -0.0779,0.143301 -0.11056,0.217739 -0.0327,0.07444 -0.0614,0.150698 -0.0859,0.228963 -0.0246,0.07827 -0.0448,0.158655 -0.0611,0.240748 -0.0164,0.08209 -0.0289,0.166052 -0.037,0.251972 -0.009,0.08592 -0.0118,0.173448 -0.0118,0.263196 0,0.09609 0.003,0.190417 0.0118,0.282276 0.009,0.09186 0.0206,0.181171 0.037,0.268807 0.0164,0.08764 0.0366,0.17361 0.0611,0.257023 0.0245,0.08341 0.0531,0.164365 0.0859,0.243554 0.0338,0.07919 0.071,0.155615 0.11168,0.229525 0.0406,0.07391 0.0849,0.145179 0.13244,0.213811 0.0475,0.06863 0.0983,0.134747 0.15264,0.198098 0.0544,0.06336 0.11216,0.124313 0.17341,0.182385 0.0623,0.05701 0.13901,0.117747 0.23008,0.182946 0.0911,0.0652 0.19667,0.134817 0.3165,0.2082 0.23968,0.146764 0.53696,0.309856 0.89173,0.489352 0.17844,0.08869 0.34183,0.175361 0.48992,0.259829 0.14808,0.08447 0.2807,0.166676 0.39843,0.246921 0.11773,0.08024 0.22072,0.158554 0.3081,0.234576 0.0873,0.07602 0.15904,0.149869 0.21605,0.221668 0.057,0.07179 0.10708,0.144654 0.14984,0.2183 0.0428,0.07365 0.0787,0.147858 0.10719,0.223351 0.0285,0.0755 0.0497,0.152183 0.064,0.229525 0.0142,0.07734 0.0213,0.155386 0.0213,0.234575 0,0.08447 -0.008,0.163471 -0.0225,0.237382 -0.0151,0.07391 -0.0382,0.142602 -0.0684,0.205954 -0.0302,0.06335 -0.0674,0.121736 -0.1128,0.174529 -0.0453,0.05279 -0.0984,0.10031 -0.15881,0.14254 -0.0605,0.04223 -0.12872,0.07887 -0.20428,0.110554 -0.0756,0.03168 -0.15848,0.05801 -0.24916,0.07912 -0.0907,0.02112 -0.18884,0.03714 -0.29462,0.04769 -0.10577,0.01053 -0.21918,0.01571 -0.34008,0.01571 -0.15732,0 -0.31556,-0.01414 -0.47421,-0.04265 -0.15863,-0.02851 -0.3176,-0.07094 -0.47756,-0.127951 -0.15996,-0.05701 -0.32078,-0.128287 -0.48205,-0.213811 -0.16129,-0.08552 -0.32339,-0.185641 -0.48599,-0.299673 l -0.60777,1.475916 c 0.17422,0.111921 0.3534,0.21012 0.53818,0.294061 0.18478,0.08394 0.37483,0.153923 0.57016,0.209883 0.19533,0.05596 0.39627,0.09773 0.60215,0.125705 0.20589,0.02799 0.41713,0.04209 0.63358,0.04209 0.24919,0 0.48549,-0.01509 0.70934,-0.04546 0.11192,-0.01518 0.22046,-0.03391 0.32605,-0.05668 0.10555,-0.02276 0.20828,-0.04933 0.30752,-0.07969 0.0993,-0.03035 0.19497,-0.06476 0.28789,-0.102699 0.093,-0.03794 0.1828,-0.07961 0.26937,-0.125145 0.0865,-0.04553 0.17005,-0.09503 0.25029,-0.148153 0.0803,-0.05313 0.1573,-0.109888 0.23121,-0.1706 0.0744,-0.06072 0.14419,-0.123688 0.20932,-0.188558 0.0652,-0.06486 0.126,-0.131878 0.18182,-0.200903 0.0558,-0.06902 0.10665,-0.140067 0.15321,-0.213251 0.0465,-0.07318 0.0885,-0.148255 0.1257,-0.225596 0.0373,-0.07734 0.0697,-0.157005 0.0976,-0.238504 0.0279,-0.0815 0.0509,-0.164632 0.0696,-0.250288 0.0186,-0.08566 0.0328,-0.173942 0.0421,-0.263757 0.01,-0.08982 0.014,-0.18157 0.014,-0.275541 0,-0.104534 -0.004,-0.206331 -0.0135,-0.305846 -0.009,-0.09952 -0.0225,-0.196755 -0.0404,-0.291255 -0.0179,-0.0945 -0.0404,-0.186619 -0.0673,-0.276103 -0.0269,-0.08948 -0.0584,-0.175921 -0.0943,-0.260389 -0.0359,-0.08552 -0.076,-0.168624 -0.1201,-0.248605 -0.0441,-0.07998 -0.092,-0.157332 -0.14422,-0.23177 -0.0522,-0.07444 -0.10903,-0.146038 -0.16948,-0.214933 -0.0605,-0.06889 -0.12498,-0.134746 -0.19361,-0.198098 -0.0686,-0.06441 -0.14766,-0.130226 -0.23794,-0.197537 -0.0902,-0.06731 -0.19168,-0.136302 -0.3036,-0.206516 -0.22385,-0.140429 -0.49095,-0.286803 -0.80137,-0.438846 -0.1473,-0.0718 -0.28528,-0.143235 -0.41415,-0.214373 -0.12888,-0.07114 -0.2487,-0.141649 -0.35916,-0.212128 -0.11048,-0.07048 -0.21155,-0.140626 -0.3036,-0.210444 -0.0921,-0.06982 -0.17496,-0.139603 -0.24861,-0.208761 -0.0736,-0.06915 -0.13781,-0.138017 -0.19305,-0.206515 -0.0553,-0.0685 -0.10176,-0.136433 -0.13861,-0.204271 -0.0368,-0.06784 -0.0641,-0.13541 -0.0825,-0.202588 -0.0185,-0.06718 -0.0275,-0.133825 -0.0275,-0.200343 0,-0.08024 0.007,-0.156934 0.0191,-0.229525 0.0129,-0.07259 0.0325,-0.141019 0.0583,-0.205954 0.0258,-0.06494 0.0583,-0.126228 0.0971,-0.183508 0.0388,-0.05728 0.084,-0.110874 0.13581,-0.160499 0.0528,-0.05068 0.11062,-0.09499 0.17396,-0.133 0.0633,-0.03801 0.13205,-0.0695 0.20596,-0.09484 0.074,-0.02534 0.15291,-0.04457 0.23738,-0.05724 0.0845,-0.01267 0.17434,-0.01908 0.26936,-0.01908 0.1605,0 0.31936,0.01286 0.47589,0.03873 0.15653,0.02587 0.31097,0.06498 0.46354,0.116726 0.15257,0.05173 0.30315,0.116564 0.45175,0.19417 0.14862,0.0776 0.29533,0.16814 0.43998,0.271613 l 0.50057,-1.419236 c -0.0629,-0.05015 -0.13029,-0.09698 -0.20202,-0.140857 -0.0718,-0.04388 -0.14777,-0.08473 -0.22841,-0.122338 -0.0807,-0.03762 -0.16578,-0.07248 -0.25534,-0.103818 -0.0896,-0.03134 -0.18381,-0.0591 -0.28227,-0.08417 -0.19692,-0.05015 -0.41169,-0.08828 -0.64424,-0.113359 -0.23256,-0.02508 -0.48267,-0.0376 -0.75086,-0.0376 z"
         id="path33"
         style="fill:#f2f2f2;fill-opacity:1;stroke-width:1.08596" /></g></g></svg>
